<?xml version="1.0" encoding="utf-8"?>
<!-- Generator: Adobe Illustrator 15.0.0, SVG Export Plug-In  -->
<!DOCTYPE svg PUBLIC "-//W3C//DTD SVG 1.1//EN" "http://www.w3.org/Graphics/SVG/1.1/DTD/svg11.dtd" [
	<!ENTITY ns_flows "http://ns.adobe.com/Flows/1.0/">
]>
<svg version="1.1"
	 xmlns="http://www.w3.org/2000/svg" xmlns:xlink="http://www.w3.org/1999/xlink" xmlns:a="http://ns.adobe.com/AdobeSVGViewerExtensions/3.0/"
	 x="0px" y="0px" width="176px" height="403px" viewBox="-0.5 -0.6 176 403" enable-background="new -0.5 -0.6 176 403"
	 xml:space="preserve">
<defs>
</defs>
<path fill="#FFF4EE" d="M162.2,128.9c-1.6-9.4-0.7-18.9-5.3-27.8c-4.4-8.4-12.7-14.7-20.4-19.8c-8.7-5.7-18.1-10.2-27.5-14.7
	c-10.5-5-20.9-10.5-32.5-12.3c-10.7-1.6-21.3,1.4-31.2,5.2c-9.5,3.7-18.5,9-25.7,16.2C12.3,83,8.7,92.5,7,102.4
	c-0.9,5.2-1.1,10.5-0.9,15.7c0.2,5.3,1.4,10.4,2.3,15.6c-1.1-0.6-2.1-0.9-3.6-0.7c-1.4,0.1-2.5,1-2.5,2.5c-0.1,3.8,2.3,7.4,4.2,10.6
	c3.2,5.4,6.6,10.8,9.9,16.1c3.1,4.9,5.9,9.9,10.2,13.9c3.7,3.5,8.4,5.8,13,7.7c4.9,2.1,10.1,3.5,15.1,5.2c6,2,11.7,4.6,17.6,6.7
	c1.7,0.6,3.3,1.1,4.9,1.5c-1.8,6.7-7,13.5-1.8,20c3.9,5,14.1,6.2,19.5,3.4c6.7-3.5,7.3-9.5,3.8-15.7c-1.4-2.4-3.1-4.8-5.1-6.7
	c3.4-0.5,6.9-1.4,10.5-2.8c10.3-3.9,20.2-9.2,30.2-14c9.1-4.4,16.5-10.2,21.4-19.2c2.8-5.1,5.8-9.5,9.1-14.3
	c2.2-3.2,3.5-6.7,4.1-10.4C169.8,131.5,166.9,127.8,162.2,128.9z"/>
<path fill="#C99342" d="M74.5,379c-3.7-4.8-10.7-5-15.7-2.4c-1.4,0.8-1.5,2.2-0.9,3.3c-1.6,5.2-2.4,11.4,1.8,15.4
	c4,3.8,10.4,2.9,14.3-0.5C78.6,390.8,77.9,383.4,74.5,379z"/>
<path fill="#9F6F29" d="M73.4,394.3c-4.6,1.2-8.3,1.3-13,0.3c-3.1-0.7-4.5,4.2-1.3,4.8c2.2,0.4,4.2,0.7,6.2,0.8
	c0.3,0.2,0.7,0.3,1.2,0.3c3.4,0.1,6.8,0.5,9.4-2.1C77.6,396.7,75.8,393.6,73.4,394.3z"/>
<g>
	<g>
		<path fill="#0F0A0F" d="M59.3,395.8c4.9,0.8,10.9,1.6,15.5-0.8c5.2-2.8,1.9-10.1-1.7-12.8c-4.2-3.2-10.2-2.9-13.9,1.1
			c-2.1,2.3-2,4.7-2.5,7.6C56.2,393.1,57,395.3,59.3,395.8c0.9,0.2,1.2-1.1,0.4-1.3c-2.3-0.6-1.6-3-1.6-4.8c0.1-2.5,1.2-4.7,3.1-6.3
			c3.6-3.1,9-2.2,12.2,1c1.6,1.7,2.8,4.2,2.7,6.6c-0.1,2.2-2.3,3.2-4.2,3.7c-3.9,1-8.3,0.5-12.3-0.1
			C58.8,394.4,58.4,395.7,59.3,395.8z"/>
	</g>
</g>
<g>
	<g>
		<path fill="#0F0A0F" d="M57.6,375.2c0.1,5.5-2.1,10.7-1.3,16.2c0.1,0.9,1.5,0.5,1.3-0.4c-0.8-5.4,1.4-10.5,1.3-15.9
			C59,374.3,57.6,374.3,57.6,375.2L57.6,375.2z"/>
	</g>
</g>
<g>
	<g>
		<path fill="#0F0A0F" d="M74.2,375.4c-0.1,4.6,1.7,8.8,1.9,13.4c0,0.9,1.4,0.9,1.4,0c-0.1-4.5-2-8.8-1.9-13.4
			C75.6,374.5,74.2,374.5,74.2,375.4L74.2,375.4z"/>
	</g>
</g>
<g>
	<g>
		<path fill="#0F0A0F" d="M56.3,392.1c0,2.8,0.4,5.5,2.5,7.5c1.9,1.8,4.8,1.9,7.3,1.9c2.7,0,5.7-0.2,8.2-1.5c2.5-1.4,3-4.4,2.8-7
			c0-0.9-1.4-0.9-1.4,0c0.1,2.5-0.2,4.8-2.6,6c-1.9,1-4.4,1-6.5,1.1c-2.1,0.1-4.4,0-6.3-1c-2.4-1.3-2.8-4.4-2.7-6.9
			C57.8,391.2,56.4,391.2,56.3,392.1L56.3,392.1z"/>
	</g>
</g>
<path fill="#C99342" d="M97.5,394.9c3.8,3.4,10.3,4.3,14.3,0.5c4.3-4,3.4-10.2,1.8-15.4c0.7-1.1,0.6-2.6-0.9-3.3
	c-5-2.6-12-2.4-15.7,2.4C93.6,383.4,92.9,390.8,97.5,394.9z"/>
<path fill="#9F6F29" d="M97.8,394c4.6,1.2,8.3,1.3,13,0.3c3.1-0.7,4.5,4.2,1.3,4.8c-2.2,0.4-4.2,0.7-6.2,0.8
	c-0.3,0.2-0.7,0.3-1.2,0.3c-3.4,0.1-6.8,0.5-9.4-2.1C93.6,396.4,95.4,393.4,97.8,394z"/>
<g>
	<g>
		<path fill="#0F0A0F" d="M112.1,394.5c-3.9,0.6-8,1-11.8,0.2c-1.9-0.4-3.9-1.2-4.5-3.2c-0.7-2.4,1.1-5.4,2.6-7.2
			c3-3.3,8-3.8,11.6-1.4c2.1,1.4,3.3,3.8,3.6,6.2C113.8,390.9,114.3,393.9,112.1,394.5c-0.9,0.2-0.5,1.6,0.4,1.3
			c2.3-0.6,3-2.6,2.6-4.8c-0.5-2.7-0.4-5.1-2.3-7.4c-3.6-4.3-9.8-4.7-14.2-1.4c-3.6,2.7-6.6,9.4-2,12.6c4.2,2.9,11.1,1.7,15.8,1
			C113.3,395.7,112.9,394.4,112.1,394.5z"/>
	</g>
</g>
<g>
	<g>
		<path fill="#0F0A0F" d="M112.7,375.2c-0.1,5.4,2.1,10.5,1.3,15.9c-0.1,0.9,1.2,1.3,1.3,0.4c0.8-5.5-1.4-10.7-1.3-16.2
			C114.1,374.3,112.7,374.3,112.7,375.2L112.7,375.2z"/>
	</g>
</g>
<g>
	<g>
		<path fill="#0F0A0F" d="M96.1,375.4c0.1,4.6-1.7,8.8-1.9,13.4c0,0.9,1.4,0.9,1.4,0c0.1-4.5,2-8.8,1.9-13.4
			C97.5,374.5,96.1,374.5,96.1,375.4L96.1,375.4z"/>
	</g>
</g>
<g>
	<g>
		<path fill="#0F0A0F" d="M114,392.1c0,2.5-0.3,5-2.4,6.6c-1.7,1.3-4.1,1.4-6.1,1.3c-2.1,0-4.3-0.2-6.3-0.8
			c-2.9-0.9-3.4-3.7-3.3-6.3c0-0.9-1.4-0.9-1.4,0c-0.1,2.5,0.2,5.3,2.5,6.8c2.3,1.6,5.3,1.6,8,1.8c2.7,0.1,5.5-0.1,7.7-1.8
			c2.3-1.8,2.7-4.9,2.7-7.6C115.4,391.2,114,391.2,114,392.1L114,392.1z"/>
	</g>
</g>
<path fill="#C65DA2" d="M116.2,279.1c-0.6-1.7-2.8-2.6-4.2-1.1c-0.9,0.9-4.3,5.8-5.7,4.6c-1.4-1.3-2.2-3.5-3.5-4.9
	c-2.9-3.3-8.3-1.6-11.8-0.6c-6.1,1.7-11.7,0.5-18,0.8c-4.3,0.2-9.5,6.2-13.4,4.2c-0.1-0.1-0.3-0.1-0.4-0.2c0-1.2-0.5-1.7-1.4-2.5
	c-3.2-3.1-3.5-4.4-3.7-1.1c-0.6,10.3-1.2,13.9-1.1,20.9c0.1,8.3,2.3,16.6,3.3,24.8c1.6,14-2,28.1-1.9,42.1c0,3.7,0.9,9.2,4.4,11.4
	c3.6,2.2,8.8,1.9,12.4-0.2c3.6-2,4.6-5.1,5.2-9c1.3-8.2-1.6-13.4-0.4-21.7c1-6.8-2-17.4,2.4-27.1c3.3-7.2,3.2-15.3,7.1-22.3
	c-0.9,1.6,2.8,8.2,3.5,9.7c1.2,3,2,6.3,2.7,9.9c1.6,8.1,2,16.6,1.6,24.8c-0.6,9.8-3.4,23.8,3.6,32.2c5,6.1,15,4.1,17.7-3.3
	c2-5.5,1.6-11.6,1-17.3c-0.9-8.7-1-17.4-0.4-26.1c0.6-9.5,0.5-19,1.9-28.4c0.5-3.3,1.1-6.6,1.3-9.9
	C118.6,284.9,117.4,282.4,116.2,279.1z"/>
<g>
	<g>
		<path fill="#0F0A0F" d="M71.5,273.5c8.2,4.7,19.9,4.1,27.8-1.1c0.8-0.5,0-1.7-0.7-1.2c-7.5,4.9-18.6,5.6-26.4,1.1
			C71.4,271.8,70.7,273,71.5,273.5L71.5,273.5z"/>
	</g>
</g>
<g>
	<g>
		<path fill="#0F0A0F" d="M69.4,278c10.6,4.4,21.9,4.7,32.2-0.8c0.8-0.4,0.1-1.6-0.7-1.2c-9.9,5.4-20.8,5-31.1,0.7
			C68.9,276.4,68.6,277.7,69.4,278L69.4,278z"/>
	</g>
</g>
<g>
	<g>
		<path fill="#0F0A0F" d="M80.5,276.2c0,1,0,2,0,3c0,0.9,1.4,0.9,1.4,0c0-1,0-2,0-3C81.9,275.3,80.5,275.3,80.5,276.2L80.5,276.2z"
			/>
	</g>
</g>
<g>
	<g>
		<path fill="#0F0A0F" d="M88.5,276.6c0.4,0.8,0.3,1.8,0.3,2.7c0,0.9,1.4,0.9,1.4,0c0-1.1,0-2.3-0.5-3.4
			C89.4,275.1,88.2,275.8,88.5,276.6L88.5,276.6z"/>
	</g>
</g>
<g>
	<g>
		<path fill="#0F0A0F" d="M82.4,295.7c2.1,1.2,4.2,1.5,6.6,1.2c0.9-0.1,0.5-1.5-0.4-1.3c-2,0.3-3.8-0.1-5.5-1.1
			C82.3,294,81.6,295.2,82.4,295.7L82.4,295.7z"/>
	</g>
</g>
<g>
	<g>
		<path fill="#0F0A0F" d="M55.1,276c-1.6,6.8-2.3,13.7-2.2,20.7c0.2,7.2,1.4,14.4,2.2,21.6c0.9,7.9,1.5,15.9,1.9,23.8
			c0.2,5.2-0.3,10.3-0.8,15.4c-0.4,4.7-1,9.7,0,14.5c0.9,4.4,4.8,5.3,8.8,5.4c2.3,0.1,4.6-0.1,6.8-0.2c1.3-0.1,2.6-0.1,3.6-1.1
			c1.1-1.1,1.3-3.2,1.6-4.7c0.7-3.7,1-7.5,1-11.3c0.1-11.1-1.5-21.9,0.4-32.9c1.8-10,5.4-19.6,6.6-29.7c0.1-0.9-1.3-0.9-1.4,0
			c-0.9,7.6-3.2,14.9-5,22.3c-1.8,7.1-2.8,14.2-2.7,21.6c0.1,7.8,1,15.6,0.5,23.4c-0.2,3.1-0.6,6.5-1.6,9.5c-0.7,2-3.6,1.5-5.3,1.6
			c-2.4,0.2-5,0.2-7.4-0.1c-3-0.5-4.3-2.3-4.7-5.1c-0.9-5.1,0-10.6,0.5-15.7c1.3-13.5-0.2-27.1-1.7-40.5c-0.7-6.2-1.6-12.3-1.8-18.6
			c-0.2-6.6,0.7-13.1,2.1-19.5C56.7,275.4,55.3,275.1,55.1,276L55.1,276z"/>
	</g>
</g>
<g>
	<g>
		<path fill="#0F0A0F" d="M115.3,276c1.7,7.3,2.4,14.7,2,22.1c-0.3,7.4-1.6,14.7-2.3,22c-0.8,7.9-1.4,15.9-1.7,23.9
			c-0.2,5,0.6,9.9,1,14.8c0.4,4.5,1.3,10.3-0.6,14.5c-1.2,2.6-5.1,2.6-7.5,2.6c-2.4,0-4.7-0.1-7.1-0.3c-2.2-0.2-2.4-2.1-2.8-4
			c-0.9-4.1-1.1-8.3-1.1-12.5c0-7.8,0.9-15.5,0.6-23.3c-0.5-13.1-6.1-25.4-7.7-38.4c-0.1-0.9-1.5-0.9-1.4,0c0.9,7.1,2.8,14,4.6,21
			c2,7.6,3.2,15.1,3.1,22.9c-0.1,7.8-1,15.6-0.5,23.4c0.2,3,0.6,6.1,1.4,9c0.3,1.2,0.8,2.5,2,2.9c1.5,0.6,3.3,0.4,4.9,0.6
			c2.3,0.2,4.9,0.2,7.2-0.1c4.4-0.7,6-3.1,6.5-7.3c0.6-5.1-0.2-10.5-0.7-15.6c-0.6-5.8-0.6-11.2-0.3-17c0.6-10.9,2-21.8,3.2-32.7
			c1.1-9.8,0.6-19.4-1.6-29C116.4,274.8,115.1,275.2,115.3,276L115.3,276z"/>
	</g>
</g>
<g>
	<g>
		<path fill="#0F0A0F" d="M73.6,216.6c3.2,2.1,6.8,4.1,10.8,4.6c5,0.5,9.4-1.2,13.4-4c0.7-0.5,0-1.7-0.7-1.2
			c-3.6,2.5-7.5,4.2-12,3.9c-3.9-0.3-7.5-2.3-10.7-4.5C73.6,214.9,72.9,216.1,73.6,216.6L73.6,216.6z"/>
	</g>
</g>
<path fill="#3CBDB1" d="M66.7,232.8c-2.2-1.2-4.1-2.5-5.5-4.6c-1.7-2.5,1.6-4.2,2.9-5.3c2-1.6,1.7-4.1,0.3-5.9
	c-0.2-0.3-0.5-0.5-0.8-0.7c-0.6-1.4-2.6-2.4-4.2-1.1c-10.7,9.5-15.8,25.4-10,38.8c1.5,3.4,4.2,6.1,5.9,9.4c2.5,5.1,1.4,9.6,2.9,13.7
	c1.4,3.8,6.1,7,9.7,3.8c3.4-3.1,4.7-8.3,5.8-12.5c1.8-7,2.7-14.5,3.1-21.7C77.6,238.9,73.1,236.2,66.7,232.8z"/>
<path fill="#15BCE9" d="M77.2,225.4c-0.9-5.4-2.1-10.3-4.2-15.4c-0.2-0.5-0.5-0.8-0.8-1.1c-0.2-1-1-1.9-2.4-1.8
	c-2.6,0.3-9.5,1.3-11,3.9c-1.4,2.4,2.8,4,4.8,5.6c4.6,3.8-1.6,4.5-2.2,8.3c-0.6,3.4,1,5.8,3.6,7.9c3.4,2.8,12.5,8.9,12.8,0.6
	C77.9,231,77.6,227.9,77.2,225.4z"/>
<g>
	<g>
		<path fill="#0F0A0F" d="M72,207c-4.4,1.5-9.3,2.1-13.3,4.6c-0.4,0.3-0.4,0.8-0.1,1.1c1.7,2,8.9,5.5,6.2,8.5
			c-1.9,2.1-6.1,3.4-4.6,7c1.2,2.9,4.6,5,7.2,6.7c2.9,1.9,6.2,3.9,9.6,4.7c0.5,0.1,0.9-0.2,0.9-0.7c0.3-5.7-0.3-11.3-1.5-16.8
			c-1.1-4.9-2.7-9.7-3.8-14.6c-0.2-0.9-1.5-0.5-1.3,0.4c1,4.4,2.4,8.8,3.4,13.2c1.4,5.9,2.1,11.9,1.8,17.9c0.3-0.2,0.6-0.5,0.9-0.7
			c-3.6-0.8-19.6-8.6-15.1-13.3c1.7-1.8,5.7-3.2,4.5-6.4c-1.1-3-5.2-4.5-7.2-6.9c0,0.4-0.1,0.7-0.1,1.1c3.9-2.4,8.7-3,13-4.4
			C73.2,208.1,72.9,206.7,72,207L72,207z"/>
	</g>
</g>
<g>
	<g>
		<path fill="#0F0A0F" d="M59.1,245.4c0,5.7-0.8,11.3-2.6,16.7c-1.2,3.6-3,6.9-2.2,10.9c0.5,2.9,2.1,4.8,3.6,7.2
			c1,1.6,1.8,3.2,3.6,4c3.8,1.5,6.2-2.2,7.9-5c2.4-3.8,3.9-8.2,5-12.6c2.2-9.3,2.2-18.9,3.4-28.3c0.1-0.9-1.3-0.9-1.4,0
			c-1.1,8.1-1.2,16.2-2.6,24.2c-0.7,4.1-6.2,25.3-12.9,19.6c-1-0.8-2-3-2.9-4.3c-1.7-2.7-2.7-4.7-2.5-8.1c0.2-3.5,2.3-7,3.2-10.4
			c1.2-4.6,1.7-9.2,1.8-14C60.5,244.5,59.1,244.5,59.1,245.4L59.1,245.4z"/>
	</g>
</g>
<g>
	<g>
		<path fill="#0F0A0F" d="M56.8,235.8c-0.1,3.1,0.1,6.7,2.1,9.2c1.6,2,3.9,3,6.3,3.7c0.9,0.2,1.2-1.1,0.4-1.3c-2.1-0.6-4-1.4-5.5-3
			c-2-2.3-2.1-5.8-2-8.6C58.3,234.9,56.9,234.9,56.8,235.8L56.8,235.8z"/>
	</g>
</g>
<g>
	<g>
		<path fill="#0F0A0F" d="M60.7,213.4c-8.1,5.5-12.4,15.4-13.8,24.8c-1.4,9.4,0.4,19.9,7.9,26.3c0.7,0.6,1.7-0.4,1-1
			c-7.4-6.3-8.8-16.5-7.5-25.6c1.3-8.8,5.6-18.2,13.1-23.3C62.1,214.1,61.4,212.9,60.7,213.4L60.7,213.4z"/>
	</g>
</g>
<path fill="#3CBDB1" d="M96,246.7c0.5,7.2,1.4,14.7,3.1,21.7c1.1,4.3,2.4,9.5,5.8,12.5c3.6,3.2,8.3,0.1,9.7-3.8
	c1.5-4.1,0.4-8.6,2.9-13.7c1.7-3.3,4.4-6,5.9-9.4c5.9-13.4,0.8-29.4-10-38.8c-1.6-1.4-3.6-0.4-4.2,1.1c-0.3,0.2-0.5,0.4-0.8,0.7
	c-1.3,1.8-1.6,4.3,0.3,5.9c1.4,1.1,4.6,2.9,2.9,5.3c-1.4,2.1-3.3,3.4-5.5,4.6C100,236.2,95.5,238.9,96,246.7z"/>
<path fill="#15BCE9" d="M95.3,233.6c0.3,8.3,9.5,2.2,12.8-0.6c2.6-2.2,4.2-4.5,3.6-7.9c-0.7-3.8-6.8-4.5-2.2-8.3
	c2-1.6,6.2-3.2,4.8-5.6c-1.5-2.6-8.4-3.7-11-3.9c-1.4-0.1-2.2,0.7-2.4,1.8c-0.3,0.3-0.6,0.6-0.8,1.1c-2.1,5.1-3.3,9.9-4.2,15.4
	C95.4,227.9,95.2,231,95.3,233.6z"/>
<g>
	<g>
		<path fill="#0F0A0F" d="M99.7,208.4c4.3,1.5,9.1,2,13,4.4c0-0.4-0.1-0.7-0.1-1.1c-2.1,2.5-5.5,3.8-7.1,6.7c-1.6,3,2.8,5.1,4.4,6.6
			c4.9,4.3-11.8,12.5-15.1,13.3c0.3,0.2,0.6,0.5,0.9,0.7c-0.3-5.8,0.4-11.5,1.6-17.2c1.1-4.7,2.6-9.2,3.6-13.9
			c0.2-0.9-1.2-1.3-1.3-0.4c-1,4.7-2.5,9.2-3.6,13.9c-1.4,5.8-2,11.6-1.7,17.6c0,0.5,0.4,0.8,0.9,0.7c3.2-0.7,6.3-2.6,9.1-4.4
			c2.7-1.7,6.4-3.9,7.6-7c1.3-3.3-2.2-5-4.2-6.7c-3.6-3,4.1-6.8,5.9-8.9c0.3-0.3,0.3-0.8-0.1-1.1c-4-2.5-8.9-3-13.3-4.6
			C99.2,206.7,98.9,208.1,99.7,208.4L99.7,208.4z"/>
	</g>
</g>
<g>
	<g>
		<path fill="#0F0A0F" d="M111.6,245.4c0,4.4,0.5,8.8,1.6,13.1c0.8,3.5,2.5,6.6,3.3,10.1c0.8,3.4-0.3,6.1-2.1,8.8
			c-1,1.5-2.1,3.7-3.2,4.7c-6.3,5.9-12.1-15.1-12.8-18.9c-1.6-8.2-1.6-16.7-2.7-25c-0.1-0.9-1.5-0.9-1.4,0
			c1.2,9.2,1.3,18.5,3.2,27.6c1,4.5,2.5,8.8,4.8,12.7c1.7,3,4.3,7.2,8.3,5.6c1.7-0.7,2.4-2.1,3.4-3.6c1.4-2.2,3.1-4.2,3.8-6.8
			c1-4-0.5-7.6-1.9-11.2c-2.1-5.4-2.8-11.5-2.8-17.2C113,244.5,111.6,244.5,111.6,245.4L111.6,245.4z"/>
	</g>
</g>
<g>
	<g>
		<path fill="#0F0A0F" d="M113.9,235.8c0.1,3-0.1,6.2-2,8.6c-1.3,1.7-3.5,2.5-5.5,3c-0.9,0.2-0.5,1.6,0.4,1.3
			c2.5-0.7,4.7-1.7,6.3-3.7c2-2.6,2.2-6.1,2.1-9.2C115.2,234.9,113.8,234.9,113.9,235.8L113.9,235.8z"/>
	</g>
</g>
<g>
	<g>
		<path fill="#0F0A0F" d="M110.7,214.6c7.6,5.2,11.7,14.5,13.1,23.3c1.5,9-0.2,19.4-7.5,25.6c-0.7,0.6,0.3,1.6,1,1
			c7.5-6.4,9.3-17,7.9-26.3c-1.4-9.4-5.7-19.3-13.8-24.8C110.7,212.9,110,214.1,110.7,214.6L110.7,214.6z"/>
	</g>
</g>
<g>
	<g>
		<path fill="#0F0A0F" d="M72.3,208.9c2.7-1.7,4.2-4,4.4-7.2c0.1-1.9,0-3.8,0-5.6c0-0.9-1.4-0.9-1.4,0c0,4.5,0.7,8.8-3.7,11.6
			C70.8,208.2,71.5,209.4,72.3,208.9L72.3,208.9z"/>
	</g>
</g>
<g>
	<g>
		<path fill="#0F0A0F" d="M99.6,207.2c-3.6-2.9-3.3-6.2-3-10.3c0.1-0.9-1.3-0.9-1.4,0c-0.1,1.4-0.2,2.8-0.3,4.3
			c-0.2,2.7,1.7,5.4,3.7,7C99.3,208.8,100.3,207.8,99.6,207.2L99.6,207.2z"/>
	</g>
</g>
<g>
	<g>
		<path d="M7.5,126.6c2.4,10.8,3.1,22.1,6.6,32.6c3.4,10.3,10.2,18.1,19.9,23c6.6,3.4,14,5.3,21,7.3c3.5,1,7,2,10.4,3.1
			c3.2,1,6.2,2.5,9.3,3.8c5.4,2.1,10.8,2.9,16.5,2.7c1.1,0,2.4-0.6,3.5-1c2.6-0.8,5.2-1.7,7.7-2.8c4.3-1.9,8.2-4.4,12.7-6
			c4.4-1.5,9-2.5,13.6-3.7c7.9-2.2,15.3-6,20.9-12.2c9.7-10.7,10.7-26.1,13-39.6c0.2-0.9-1.2-1.3-1.3-0.4
			c-1.9,10.7-2.8,22.1-7.9,31.9c-2.6,5.1-6.6,9.4-11.3,12.7c-5.8,4-12.5,5.9-19.3,7.6c-6.9,1.8-13,4.1-19.2,7.5
			c-2.5,1.4-5.3,2.4-8.1,3.3c-1.6,0.5-3.4,1.2-5.1,1.3c-6.1,0.2-11.6-1.1-17.2-3.4c-6.7-2.8-13.5-4.8-20.4-6.8
			c-8.1-2.3-16.3-4.7-23.3-9.4c-5.5-3.7-9.6-8.8-12.3-14.7c-5.3-11.5-5.6-24.8-8.3-37C8.7,125.3,7.3,125.7,7.5,126.6L7.5,126.6z"/>
	</g>
</g>
<path fill="#A0866D" d="M173.4,97.4c-2-8-5.7-15.6-9.4-22.9c-3.2-6.4-6.7-12.7-11.1-18.2c-0.1-0.1-0.2-0.3-0.3-0.4
	c3.4-1.4,4.7-5.2,7.2-7.4c-2.7,2.2-6.7,3.6-10.4,4c-1.3-1.2-2.8-2.4-4.3-3.4c5.8-4.9,7.8-12.5,4.8-20c-4.3-10.7-17-12.3-25.6-18.3
	c-4.4-3.1-8-6.7-13.2-8.1c-4.1-1.1-8.4,0-12,2c-8.4,4.6-9.2,14.8-9.1,23.7c-2.2-1.8-4-3.9-6.1-5.7c1.7,2.5,3.1,5.3,4.1,8.3
	c-4.3-1.1-8.9-1.4-12.8-1.5c-22.8,0.3-48.2,11.2-61.2,30.4c-12.5,18.5-16.6,47.9-5.9,68c0.7,1.3,2.9,1.8,3.9,0.5
	c4.7-6,5.8-13.7,8.4-20.6c2.2-5.9,5.9-10.8,10.6-14.4c-2,4.1-4.3,8-6.9,11.7c-1.9,2.6,2.5,5.1,4.3,2.5c8.1-11.2,23-15,35.4-19.4
	c10.8-3.8,20.4-8.7,28.8-16.4c0.8-0.8,1.7-1.6,2.5-2.4c-0.1,0.4-0.2,0.9-0.2,1.3c-0.1,0.7,0,1.3,0.3,1.7c-0.7,7.9-0.8,16.6,7.4,20
	c1.3,0.5,2.7-0.6,3.1-1.7c1.3-3.9,1.8-8,2.6-12c5,6.8,11.8,11.7,19.6,15.6c7.4,3.7,19.3,6,22.9,14.3c1,2.4,4.7,1.1,4.7-1.3v-2.6
	c5.1,6.9,7.8,14.8,9.1,23.6c0.3,1.8,3.1,2.5,4.2,1.1C175.2,120.9,175.8,107.4,173.4,97.4z"/>
<g>
	<g>
		<path d="M91.2,32.3c-1.5-4.6-3.4-9.2-3.1-14.2c0.3-5.9,4.7-11.4,9.4-14.5c4.6-3,10.2-2.7,15.1-0.5c5,2.2,8,6.6,12.7,9.1
			c8,4.3,19,6.8,22.2,16.3c2.5,7.3,0.8,18.5-7.2,21.6c-0.8,0.3-0.5,1.7,0.4,1.3c8.2-3.2,10.2-13.3,8.8-21.1
			C147.4,19,135.2,15.5,126,11c-2.9-1.4-4.8-3.9-7.3-5.9c-2.3-1.8-4.9-3.2-7.7-4.2c-4.8-1.7-9.9-1.1-14.2,1.4
			C92,5.2,88.3,10.5,87,15.9c-1.3,5.6,1.1,11.5,2.8,16.7C90.1,33.5,91.5,33.2,91.2,32.3L91.2,32.3z"/>
	</g>
</g>
<g>
	<g>
		<path d="M119.3,8.1c0.9,12.7-9.7,24.3-21.3,27.9c-0.9,0.3-0.5,1.6,0.4,1.3c12.2-3.8,23.3-16,22.4-29.3
			C120.7,7.2,119.3,7.2,119.3,8.1L119.3,8.1z"/>
	</g>
</g>
<g>
	<g>
		<path d="M126.9,12.5c-2.3,12.8-11.4,23.8-23.6,28.5c-0.8,0.3-0.5,1.7,0.4,1.3c12.6-4.9,22.2-16.2,24.6-29.5
			C128.4,11.9,127,11.6,126.9,12.5L126.9,12.5z"/>
	</g>
</g>
<g>
	<g>
		<path d="M134.4,16.8c-1.3,11.8-9.5,21.2-19.2,27.3c-0.8,0.5-0.1,1.7,0.7,1.2c10.2-6.4,18.6-16.2,19.9-28.5
			C135.9,15.9,134.5,15.9,134.4,16.8L134.4,16.8z"/>
	</g>
</g>
<g>
	<g>
		<path d="M133.4,25c3.2,5.1,9.5,9.6,15.7,9.8c0.9,0,0.9-1.4,0-1.4c-5.6-0.2-11.6-4.4-14.5-9.1C134.1,23.6,132.9,24.3,133.4,25
			L133.4,25z"/>
	</g>
</g>
<g>
	<g>
		<path d="M130.3,30.5c2.6,6.7,9.3,11.2,16.3,12.2c0.9,0.1,1.3-1.2,0.4-1.3c-6.5-0.9-12.9-4.9-15.3-11.2
			C131.3,29.3,129.9,29.7,130.3,30.5L130.3,30.5z"/>
	</g>
</g>
<g>
	<g>
		<path d="M103.5,1.2c2,7.8,6.2,14.6,11.9,20.3c0.6,0.6,1.6-0.3,1-1c-5.4-5.5-9.5-12.1-11.5-19.6C104.7-0.1,103.3,0.3,103.5,1.2
			L103.5,1.2z"/>
	</g>
</g>
<g>
	<g>
		<path d="M96.4,3.5c1.8,9.4,7.7,18,14.9,24.1c0.7,0.6,1.7-0.4,1-1c-7-6-12.8-14.3-14.5-23.5C97.6,2.2,96.2,2.6,96.4,3.5L96.4,3.5z"
			/>
	</g>
</g>
<g>
	<g>
		<path d="M89.2,10.4c1.3,9.7,8.4,17.6,16.8,22.2c0.8,0.4,1.5-0.8,0.7-1.2C98.7,27,91.9,19.4,90.6,10C90.4,9.1,89.1,9.5,89.2,10.4
			L89.2,10.4z"/>
	</g>
</g>
<g>
	<g>
		<path d="M124.6,37c0.9,4.6,4.5,7.6,7.7,10.8c0.6,0.6,1.6-0.4,1-1c-3-3-6.5-5.8-7.4-10.1C125.8,35.8,124.4,36.2,124.6,37L124.6,37z
			"/>
	</g>
</g>
<g>
	<g>
		<path d="M142.6,51.8c6.7-0.5,13.2-2.9,18.2-7.4c-0.4-0.1-0.8-0.2-1.2-0.3c1.3,5.3-2.3,11.4-7.4,13.1c-0.9,0.3-0.5,1.6,0.4,1.3
			c5.8-1.9,9.9-8.8,8.4-14.8c-0.1-0.5-0.8-0.6-1.2-0.3c-4.8,4.2-10.9,6.5-17.2,7C141.7,50.4,141.7,51.8,142.6,51.8L142.6,51.8z"/>
	</g>
</g>
<g>
	<g>
		<path d="M82.1,28.3c-2.5-2.8-1.7-7.3-1.7-10.8c-0.4,0.1-0.9,0.2-1.3,0.4c2.4,3.3,4.8,6.6,8,9.2c0.7,0.6,1.7-0.4,1-1
			c-3.1-2.5-5.4-5.7-7.8-8.9c-0.4-0.5-1.3-0.4-1.3,0.4c0,4-0.8,8.6,2.1,11.8C81.7,30,82.7,29,82.1,28.3L82.1,28.3z"/>
	</g>
</g>
<g>
	<g>
		<path fill="#0F0A0F" d="M93.4,68.2C90.3,72.8,91,79,92.4,84c1.4,4.8,4.2,10.1,9.2,12c0.4,0.2,0.9-0.2,0.9-0.7
			c-0.8-7.1,1.8-13.3,3.2-20.1c0.2-0.9-1.2-1.3-1.3-0.4c-1.4,6.9-4.1,13.2-3.3,20.4c0.3-0.2,0.6-0.5,0.9-0.7
			c-4.6-1.8-7.1-7.1-8.3-11.6c-1.3-4.5-1.7-10.1,1-14.1C95.1,68.2,93.9,67.5,93.4,68.2L93.4,68.2z"/>
	</g>
</g>
<g>
	<g>
		<path fill="#0F0A0F" d="M101.1,61.1c-4,9.9-8.8,23.2-1.4,32.8c0.5,0.7,1.8,0,1.2-0.7c-7.1-9.3-2.3-22.1,1.6-31.7
			C102.8,60.7,101.4,60.3,101.1,61.1L101.1,61.1z"/>
	</g>
</g>
<g>
	<g>
		<path fill="#0F0A0F" d="M103.1,46.4c1.5,12.3-10.2,23.8-20.4,28.6c-13.1,6.1-28,6-41.9,9.5c-9.7,2.4-18.3,7.2-23.4,16.1
			c-4.9,8.5-6.4,18.6-9,27.9c-0.1,0.2-0.1,0.4-0.2,0.7c0.4-0.1,0.9-0.1,1.3-0.2C-2,106.5,1.6,75.4,17.9,56.3
			c8.1-9.5,19-16.3,30.6-20.7c5.8-2.2,11.9-3.7,18.1-4.5c2.8-0.4,5.6-0.6,8.5-0.6c2.4-0.1,5.2-0.3,7.6,0.3c8.2,1.8,19,6.6,20.5,15.8
			c0.2,0.9,1.5,0.5,1.3-0.4C103.1,38,95,33.5,87.9,30.9c-7.4-2.7-15.3-2-23-0.9C42.1,33.2,19,46.6,8.7,67.8
			c-9.1,18.7-9.9,43.1-0.3,61.8c0.3,0.6,1.1,0.4,1.3-0.2c2.7-9.6,4.3-20,9.3-28.7c5.9-10.2,17-14.1,28-16.2
			c13.5-2.7,27.9-3.2,40.1-10.2c8.8-5,17.6-15.5,17.7-26c0-0.7-0.1-1.3-0.2-2C104.4,45.5,103,45.5,103.1,46.4z"/>
	</g>
</g>
<g>
	<g>
		<path fill="#0F0A0F" d="M101.8,43c0.7,8.9-2.8,16.2-10.4,20.9c-7.3,4.4-16.3,5.9-24.6,7c-7.9,1-15.9,1.2-23.8,2.5
			C33,75,23.7,79.5,16.8,87c-7.4,8.2-11.1,19.1-12.5,29.8c-0.1,0.9,1.2,1.3,1.3,0.4c1.5-10.6,5-21.1,12.2-29.2
			c7.4-8.4,18-12.6,28.9-13.8c15.3-1.7,32.7-1.2,46.2-9.6c7.6-4.8,11.1-12.7,10.3-21.6C103.1,42.2,101.7,42.1,101.8,43L101.8,43z"/>
	</g>
</g>
<g>
	<g>
		<path fill="#0F0A0F" d="M101.3,41.4c1.2,18.5-25,19.1-37.8,19.4c-8.1,0.2-16.2,0-24.2,1.6c-10.9,2.2-21.4,7.5-29,15.8
			c-3.9,4.2-6.7,9.2-8.4,14.6C1.6,93.7,3,94,3.3,93.2c3.9-11.8,13-20.3,24-25.4c9.2-4.2,19-5.4,29-5.5c8.1-0.1,16.1-0.2,24.1-1.4
			c6.9-1.1,14.9-3.2,19.4-9c2.3-3,3.1-6.8,2.9-10.5C102.6,40.5,101.2,40.5,101.3,41.4L101.3,41.4z"/>
	</g>
</g>
<g>
	<g>
		<path fill="#0F0A0F" d="M95.9,35.9c0.5,14.9-19.7,15.8-30.3,16c-7.9,0.2-15.9-0.2-23.8,0.1c-9.8,0.4-19.1,2.7-27.7,7.7
			c-0.8,0.5-0.1,1.7,0.7,1.2c9.6-5.6,19.9-7.4,30.8-7.6c7.8-0.1,15.6,0.2,23.4-0.1c11-0.5,28.8-2.8,28.3-17.3
			C97.2,35,95.8,35,95.9,35.9L95.9,35.9z"/>
	</g>
</g>
<g>
	<g>
		<path fill="#0F0A0F" d="M86.8,31.9c-0.2,4.3-5.3,5.8-8.8,6.6c-6,1.4-12.3,1.7-18.4,1.9c-6.3,0.3-12.5,0.4-18.8,1
			c-4.3,0.4-9.3,0.9-12.9,3.4c-0.7,0.5,0,1.7,0.7,1.2c4.1-2.8,9.9-3,14.6-3.4c6.9-0.6,13.8-0.6,20.6-1c5.7-0.3,11.6-0.7,17.1-2.5
			c3.4-1.1,6.9-3.3,7.1-7.2C88.2,31,86.8,31,86.8,31.9L86.8,31.9z"/>
	</g>
</g>
<g>
	<g>
		<path fill="#0F0A0F" d="M75.4,29.4c-9,4.6-19,4.1-28.8,5.3c-0.9,0.1-0.9,1.5,0,1.4c10.1-1.3,20.2-0.8,29.5-5.5
			C76.9,30.2,76.2,29,75.4,29.4L75.4,29.4z"/>
	</g>
</g>
<g>
	<g>
		<path fill="#0F0A0F" d="M89.7,70.9C84,84.3,67.8,86.8,55.6,91.2C49.1,93.5,42.5,96,36.3,99c-6.3,3-12.5,6.8-16.6,12.6
			c0.4,0.2,0.9,0.4,1.3,0.5c2.5-8.8,6.8-18.5,14.1-24.4c0.7-0.6-0.3-1.5-1-1c-7.5,6-12,15.9-14.5,25c-0.2,0.8,0.8,1.2,1.3,0.5
			c4.4-6.2,11.4-9.9,18.1-13c6.6-3,13.5-5.6,20.4-7.9c11.7-3.9,26.2-7.2,31.5-19.7C91.2,70.8,90,70.1,89.7,70.9L89.7,70.9z"/>
	</g>
</g>
<g>
	<g>
		<path fill="#0F0A0F" d="M63.1,80.9c-9.9,11.2-29,6.2-38.6,17.9c-0.6,0.7,0.4,1.7,1,1C35,88.2,54.1,93.1,64,81.9
			C64.6,81.2,63.7,80.2,63.1,80.9L63.1,80.9z"/>
	</g>
</g>
<g>
	<g>
		<path fill="#0F0A0F" d="M101.2,53c-2.9,8,1.9,17.2,7.1,23.2c6.6,7.6,17.1,10.9,26.1,14.6c9.1,3.7,18.2,8.4,22.8,17.5
			c3.9,7.7,3.8,17,4.2,25.5c0,0.6,0.8,1,1.2,0.5c7.4-8.8,10.1-20.5,10.2-31.8c0.1-11.6-2.8-23-9.4-32.6c-6.7-9.8-16.7-17.3-27.7-22
			c-4.4-1.9-10-4.1-14.9-4.1c-2.6,0-5.3,0.3-7.8,0.9c-4.8,1-9.7,3.4-11.7,8.1c-0.4,0.8,0.9,1.5,1.2,0.7c1.9-4.5,6.4-6.5,10.9-7.5
			c2.5-0.6,5.4-1.1,8-0.8c12.4,1.8,24.1,8,33.2,16.6c9.3,8.8,14.7,20.1,16.3,32.7c1.5,12.1-0.2,25.2-6.9,35.6
			c-0.7,1.1-1.5,2.1-2.4,3.1c0.4,0.2,0.8,0.3,1.2,0.5c-0.4-8-0.5-16.3-3.4-23.9c-3-7.8-9.3-13.1-16.5-16.8
			c-9.2-4.8-19.5-7.4-28.2-13.3c-7.7-5.3-15.6-16.7-12.1-26.4C102.9,52.5,101.5,52.1,101.2,53z"/>
	</g>
</g>
<g>
	<g>
		<path fill="#0F0A0F" d="M102.8,50.7c-6,18.7,15.2,26.6,29.2,31.2c9.6,3.2,18.8,6.4,25.5,14.5c7.3,8.8,9.4,21.6,6.9,32.5
			c0,0.3-0.1,0.6-0.1,0.9c-0.1,0.9,1.3,0.9,1.4,0c0.1-1.4,0.7-2.7,0.9-4.2c0.1-1.4,0.2-2.8,0.2-4.1c0.1-2.7-0.1-5.4-0.5-8.1
			c-0.7-5-2.5-9.9-5.1-14.3c-5.3-8.7-14-13.6-23.4-16.8c-13.9-4.7-39.9-11.2-33.6-31.2C104.4,50.2,103.1,49.8,102.8,50.7L102.8,50.7
			z"/>
	</g>
</g>
<g>
	<g>
		<path fill="#0F0A0F" d="M103.5,49.5c-4.4,14.8,15.9,20.3,26.3,23c7.8,2,15.4,3.8,22.5,7.8c9.8,5.5,18.1,14.8,19.1,26.3
			c0.1,0.9,1.5,0.9,1.4,0c-1.8-19.3-20.3-29.9-37.3-34.1c-10.3-2.5-35.4-7.1-30.7-22.6C105.1,49,103.8,48.7,103.5,49.5L103.5,49.5z"
			/>
	</g>
</g>
<g>
	<g>
		<path fill="#0F0A0F" d="M108.6,46.3c-3,11.2,10.3,16.1,18.7,18.5c5.9,1.7,12,2.8,17.9,4.3c8.2,2,15.6,5.3,21.8,11.2
			c0.7,0.6,1.6-0.4,1-1c-5.1-4.8-11-8.1-17.7-10.2c-6-1.9-12.3-3.1-18.5-4.5c-8.3-2-25.1-6.1-22-17.8
			C110.2,45.8,108.8,45.5,108.6,46.3L108.6,46.3z"/>
	</g>
</g>
<g>
	<g>
		<path fill="#0F0A0F" d="M116.2,44.8c-1.2,7.4,11.2,10.2,16.2,11.7c5.2,1.6,10.4,2.9,15.6,4.5c3.7,1.1,8.3,2.4,11.1,5.3
			c0.6,0.7,1.6-0.3,1-1c-2.2-2.4-5.6-3.6-8.5-4.6c-4.6-1.7-9.5-2.9-14.2-4.2c-4.6-1.3-9.4-2.6-13.8-4.6c-2.5-1.2-6.6-3.3-6-6.7
			C117.7,44.3,116.4,43.9,116.2,44.8L116.2,44.8z"/>
	</g>
</g>
<g>
	<g>
		<path fill="#0F0A0F" d="M125.7,46.2c6.3,5.2,14.1,6.8,21.6,9.5c0.8,0.3,1.2-1,0.4-1.3c-7.2-2.7-14.9-4.1-21-9.1
			C126,44.7,125,45.6,125.7,46.2L125.7,46.2z"/>
	</g>
</g>
<g>
	<g>
		<path fill="#0F0A0F" d="M102.9,68.6c1,12.1,11.1,23,21.5,28.4c8.6,4.5,22.6,7.5,25.7,18.1c0.2,0.6,1.2,0.7,1.3,0
			c1.2-4.8,2.1-10.6,0.3-15.4c-0.3-0.8-1.7-0.5-1.3,0.4c1.7,4.6,0.8,10-0.3,14.6c0.5,0,0.9,0,1.3,0c-2.9-9.7-14.5-13.5-22.8-17.2
			c-11.4-5.1-23.3-15.7-24.3-28.9C104.2,67.7,102.8,67.7,102.9,68.6L102.9,68.6z"/>
	</g>
</g>
<g>
	<g>
		<path fill="#0F0A0F" d="M118.3,83.6c4.4,5.1,9.7,8.9,15.9,11.6c6,2.6,12.9,5.1,17.4,10.1c0.6,0.7,1.6-0.3,1-1
			c-4.3-4.9-10.6-7.2-16.4-9.8c-6.5-3-12.1-6.5-16.9-12C118.7,81.9,117.7,82.9,118.3,83.6L118.3,83.6z"/>
	</g>
</g>
<g>
	<g>
		<path fill="#0F0A0F" d="M162.3,135.1c1.6-1.7,4.9-4.3,5.9-0.7c0.6,2.2-0.8,4.8-1.7,6.8c-1.4,2.9-3.7,8.5-7.3,9.1
			c-0.9,0.2-0.5,1.5,0.4,1.3c2.4-0.4,4-2.9,5.3-4.8c1.8-2.7,3.3-5.7,4.4-8.8c0.6-1.9,0.8-5.1-1.2-6.3c-2.5-1.6-5.2,0.6-6.9,2.4
			C160.6,134.7,161.6,135.7,162.3,135.1L162.3,135.1z"/>
	</g>
</g>
<g>
	<g>
		<path fill="#0F0A0F" d="M159.2,150.5c-4.1,9,11.6,14,12,4.7c0-0.3-0.2-0.6-0.5-0.7c-5.7-1.2-7.7,6.1-5.8,10.4
			c0.4,0.8,1.6,0.1,1.2-0.7c-1.4-3-0.2-9.2,4.2-8.3c-0.2-0.2-0.3-0.4-0.5-0.7c-0.2,6.9-12.5,2.9-9.4-4
			C160.7,150.4,159.5,149.7,159.2,150.5L159.2,150.5z"/>
	</g>
</g>
<g>
	<g>
		<path fill="#0F0A0F" d="M9.9,134.1c-1.7-1.8-3.9-3.7-6.5-2.6c-2.4,1-2,4.6-1.5,6.6c0.7,2.9,2.5,5.8,4,8.3c1.3,2.1,3.1,4.8,5.7,5.3
			c0.9,0.2,1.3-1.2,0.4-1.3c-3.5-0.6-5.9-6.2-7.3-9.1c-0.9-1.9-1.7-3.8-1.8-5.9c0-1.3,0.6-2.7,2.1-2.8c1.6-0.1,3,1.6,4,2.6
			C9.5,135.7,10.5,134.7,9.9,134.1L9.9,134.1z"/>
	</g>
</g>
<g>
	<g>
		<path fill="#0F0A0F" d="M10.8,151.3c3.1,6.9-9.1,10.9-9.4,4c-0.2,0.2-0.3,0.5-0.5,0.7c4.4-0.9,5.6,5.3,4.2,8.3
			c-0.4,0.8,0.8,1.5,1.2,0.7c1.9-4.2-0.1-11.6-5.8-10.4c-0.3,0.1-0.5,0.4-0.5,0.7c0.3,9.3,16.1,4.3,12-4.7
			C11.6,149.7,10.4,150.4,10.8,151.3L10.8,151.3z"/>
	</g>
</g>
<g>
	<g>
		<path fill="#0F0A0F" d="M81,136.9c0,2.6-0.3,5.3-0.5,7.9c-0.1,2.4-0.1,4.5-0.5,6.9c-0.6,3.3,0.4,6,4.2,4.9
			c0.9-0.2,0.5-1.6-0.4-1.3c-2.3,0.6-2.8-0.5-2.6-2.5c0.1-1.3,0.5-2.6,0.6-3.9c0.2-1.8-0.1-3.7,0.1-5.6c0.2-2.1,0.3-4.2,0.4-6.3
			C82.4,136,81,136,81,136.9L81,136.9z"/>
	</g>
</g>
<g>
	<path fill="#FAD0DA" d="M126.6,157.3c0.8,2.7,8.5,2.4,10.9,1.6c2.3-0.7,2.5-2.9,0-3.8c-2.9-1.1-4.9,0.7-8-0.3
		C129.4,154.7,125.8,154.7,126.6,157.3z"/>
</g>
<g>
	<g>
		<path fill="#0F0A0F" d="M121.2,140.2c6.7-6.2,17-6.8,23.8-0.3c0.7,0.7,1.8-0.4,1.1-1.1c-7.4-7.1-18.5-6.4-25.9,0.3
			C119.4,139.8,120.5,140.9,121.2,140.2L121.2,140.2z"/>
	</g>
</g>
<g>
	<path fill="#0F0A0F" d="M145.1,138.4c1.6-1.6,2.5-3.8,2.2-5.7c-2.2,1.3-4.4,2.2-6.6,3.1L145.1,138.4z"/>
	<g>
		<path fill="#0F0A0F" d="M145.5,138.8c1.5-1.6,2.6-3.7,2.3-6c0-0.4-0.4-0.6-0.8-0.4c-2.1,1.2-4.4,2.2-6.6,3.1
			c-0.4,0.2-0.3,0.7,0,0.9c1.5,0.8,2.9,1.7,4.4,2.5c0.6,0.3,1.1-0.5,0.5-0.9c-1.5-0.8-2.9-1.7-4.4-2.5c0,0.3,0,0.6,0,0.9
			c2.2-1,4.5-1.9,6.6-3.1c-0.3-0.1-0.5-0.3-0.8-0.4c0.3,2-0.7,3.9-2.1,5.3C144.3,138.5,145,139.2,145.5,138.8z"/>
	</g>
</g>
<g>
	<path fill="#FAD0DA" d="M43.5,157.3c-0.8,2.7-8.5,2.4-10.9,1.6c-2.3-0.7-2.5-2.9,0-3.8c2.9-1.1,4.9,0.7,8-0.3
		C40.6,154.7,44.2,154.7,43.5,157.3z"/>
</g>
<g>
	<g>
		<path fill="#0F0A0F" d="M50.9,139.1c-7.4-6.8-18.5-7.4-25.9-0.3c-0.7,0.7,0.4,1.7,1.1,1.1c6.8-6.5,17-5.9,23.8,0.3
			C50.6,140.9,51.6,139.8,50.9,139.1L50.9,139.1z"/>
	</g>
</g>
<g>
	<path fill="#0F0A0F" d="M25.9,138.4c-1.6-1.6-2.5-3.8-2.2-5.7c2.2,1.3,4.4,2.2,6.6,3.1L25.9,138.4z"/>
	<g>
		<path fill="#0F0A0F" d="M26.2,138.1c-1.4-1.4-2.3-3.3-2.1-5.3c-0.3,0.1-0.5,0.3-0.8,0.4c2.1,1.2,4.4,2.2,6.6,3.1
			c0-0.3,0-0.6,0-0.9c-1.5,0.8-2.9,1.7-4.4,2.5c-0.6,0.3-0.1,1.2,0.5,0.9c1.5-0.8,2.9-1.7,4.4-2.5c0.3-0.2,0.4-0.7,0-0.9
			c-2.2-1-4.5-1.9-6.6-3.1c-0.4-0.2-0.7,0.1-0.8,0.4c-0.3,2.3,0.8,4.4,2.3,6C26,139.2,26.7,138.5,26.2,138.1z"/>
	</g>
</g>
<g>
	<g>
		<path fill="#0F0A0F" d="M88.2,174.6c3.4,0.1,6.8-0.4,9.4-2.7c0.7-0.6-0.3-1.6-1-1c-2.4,2.1-5.4,2.4-8.5,2.3
			C87.3,173.2,87.3,174.6,88.2,174.6L88.2,174.6z"/>
	</g>
</g>
</svg>
